HIERARCHY
ROOT Hips
{
  OFFSET 1.44925e-005 102.336 -0.101585
  CHANNELS 6 Xposition Yposition Zposition Zrotation Xrotation Yrotation
  JOINT LeftUpLeg
  {
    OFFSET 8.9458 -8.66707 0.101652
    CHANNELS 3 Zrotation Xrotation Yrotation
    JOINT LeftLeg
    {
      OFFSET 0 -44.4227 1.3727
      CHANNELS 3 Zrotation Xrotation Yrotation
      JOINT LeftFoot
      {
        OFFSET -0.253549 -42.0924 -1.46059
        CHANNELS 3 Zrotation Xrotation Yrotation
        JOINT LeftToes
        {
          OFFSET -0.04 -4.41509 8.4991
          CHANNELS 3 Zrotation Xrotation Yrotation
          End Site
          {
            OFFSET 0.08 -0.047448 9.77979
          }
        }
      }
    }
  }
  JOINT Spine
  {
    OFFSET 0 11.8905 0
    CHANNELS 3 Zrotation Xrotation Yrotation
    JOINT Spine1
    {
      OFFSET 0 25.6574 0.127663
      CHANNELS 3 Zrotation Xrotation Yrotation
      JOINT RightShoulder
      {
        OFFSET -8.99 -0.362252 -0.22
        CHANNELS 3 Zrotation Xrotation Yrotation
        JOINT RightArm
        {
          OFFSET -10.2827 -0.00338 0.322123
          CHANNELS 3 Zrotation Xrotation Yrotation
          JOINT RightForeArm
          {
            OFFSET -26.364 0.099144 -1.42434
            CHANNELS 3 Zrotation Xrotation Yrotation
            JOINT RightHand
            {
              OFFSET -22.0324 0.085362 1.02216
              CHANNELS 3 Zrotation Xrotation Yrotation
              End Site
              {
                OFFSET -13.3284 -0.6 1.50291
              }
            }
          }
        }
      }
      JOINT LeftShoulder1
      {
        OFFSET 8.99 -0.362252 -0.22
        CHANNELS 3 Zrotation Xrotation Yrotation
        JOINT LeftArm
        {
          OFFSET 10.2827 -0.00337999 0.322123
          CHANNELS 3 Zrotation Xrotation Yrotation
          JOINT LeftForeArm
          {
            OFFSET 26.2597 0.099144 -1.42434
            CHANNELS 3 Zrotation Xrotation Yrotation
            JOINT LeftHand
            {
              OFFSET 22.0902 0.085362 1.02216
              CHANNELS 3 Zrotation Xrotation Yrotation
              End Site
              {
                OFFSET 13.419 -0.6 1.50291
              }
            }
          }
        }
      }
      JOINT Head
      {
        OFFSET 0 8.73416 0.011341
        CHANNELS 3 Zrotation Xrotation Yrotation
        End Site
        {
          OFFSET -0.29 12.7742 2.51395
        }
      }
    }
  }
  JOINT RightUpLeg
  {
    OFFSET -8.9458 -8.66707 0.101652
    CHANNELS 3 Zrotation Xrotation Yrotation
    JOINT RightLeg
    {
      OFFSET 0 -44.4227 1.3727
      CHANNELS 3 Zrotation Xrotation Yrotation
      JOINT RightFoot
      {
        OFFSET 0.253549 -42.0924 -1.46059
        CHANNELS 3 Zrotation Xrotation Yrotation
        JOINT RightToes
        {
          OFFSET 0.04 -4.41509 8.4991
          CHANNELS 3 Zrotation Xrotation Yrotation
          End Site
          {
            OFFSET -0.08 -0.137448 9.77979
          }
        }
      }
    }
  }
}
MOTION
Frames:	8
Frame Time:	0.0333333
188.001 103.053 6.41474 -3.49944 -0.456604 -93.3147 -1.67198 2.95027 2.19282 -0.485121 7.83411 19.0017 -1.39514 -11.1184 0.0097085 -1.37585e-009 8.75206e-006 -1.46697e-008 0.972206 6.62831 0.607203 -1.75024 1.06583 1.06366 36.697 1.77046 0.112476 42.2236 -12.8367 6.24895 6.68672 31.8612 12.1242 -13.3837 9.16373 1.33863 -45.4064 3.64249 -3.47783 -26.7291 -1.40334 -1.80202 -2.47614 28.5497 -19.1628 5.82328 9.61819 -0.917488 -0.706843 -6.4362 -2.94529 -1.70201 3.56237 -4.97898 0.173443 9.48227 -11.0051 2.91699 -13.5352 -0.0573026 0.0462048 0.000530889 0.662642 
188 103.053 6.41474 -3.458 -0.471801 -93.3377 -1.69463 2.89786 2.16787 -0.479449 7.84473 19.0545 -1.36273 -11.1077 0.00970815 -1.37585e-009 8.75206e-006 -1.46697e-008 0.909707 6.64958 0.595805 -1.68336 0.997453 1.03594 36.6716 1.77046 0.112394 42.2232 -13.1711 6.17912 6.86843 32.0224 11.8263 -13.6703 9.15422 1.27092 -45.4188 3.64249 -3.47783 -26.7459 -1.41747 -1.73332 -2.47473 28.6628 -19.1323 5.82328 9.61819 -0.917488 -0.491104 -6.45579 -2.68833 -1.71736 3.49181 -4.97828 0.168707 9.52707 -10.961 2.86981 -13.5601 -0.0573086 0.0462048 0.000530889 0.662642 
187.989 103.053 6.41474 -3.42409 -0.477924 -93.3854 -1.72448 2.83638 2.11504 -0.441788 7.91377 19.1419 -1.34761 -11.1338 0.00970902 -1.37585e-009 8.75206e-006 -1.46697e-008 0.865242 6.70682 0.575302 -1.6427 0.929669 1.00593 36.6808 1.77046 0.109483 42.1915 -14.0017 6.07692 7.09073 32.8548 11.2694 -13.8209 9.12611 1.44621 -45.3875 3.64248 -3.47994 -26.8124 -1.56792 -1.64348 -2.49161 29.0119 -19.0122 5.82328 9.61819 -0.917488 -0.193956 -6.49691 -2.42294 -1.72411 3.43229 -4.97231 0.158638 9.57749 -10.909 2.84868 -13.5844 -0.0573145 0.0462048 0.000530889 0.662642 
187.967 103.052 6.41474 -3.43029 -0.46101 -93.4678 -1.72474 2.84345 2.0965 -0.410156 7.96584 19.2225 -1.38363 -11.1907 0.00905007 -1.37585e-009 8.75206e-006 -1.46697e-008 0.846378 6.68046 0.575125 -1.61907 1.04243 1.00321 36.7054 1.77046 0.100935 42.1534 -15.064 6.03303 7.29611 34.0015 10.6363 -13.6162 9.10035 1.79208 -45.3457 3.64444 -3.489 -26.8822 -1.98818 -1.65195 -2.6518 29.553 -18.6785 5.82328 9.61819 -0.917488 -0.237485 -6.64386 -2.53727 -1.70349 3.44333 -4.94909 0.140085 9.58276 -10.8668 2.86838 -13.586 -0.0573149 0.0462048 0.000530889 0.662642 
187.944 103.049 6.4152 -3.44068 -0.446061 -93.5786 -1.71562 2.87935 2.1129 -0.405093 7.9725 19.3129 -1.44974 -11.2443 0.00683807 -1.37585e-009 8.75206e-006 -1.46697e-008 0.736785 6.57116 0.601442 -1.46134 1.25653 0.998026 36.6292 1.77046 0.102142 42.171 -15.9372 6.01909 7.54968 34.6723 10.0601 -13.5258 9.09171 1.92352 -45.4235 3.65466 -3.49814 -26.8699 -2.60762 -1.69895 -2.9811 30.1525 -18.1484 5.82328 9.61819 -0.917488 -0.589093 -6.85723 -2.85201 -1.68113 3.45425 -4.91592 0.110239 9.58537 -10.7917 2.88459 -13.6153 -0.0573219 0.0462048 0.000530889 0.662642 
187.931 103.043 6.41732 -3.42919 -0.457313 -93.6711 -1.73578 2.88306 2.11579 -0.408778 7.96951 19.4095 -1.4711 -11.2644 0.00568197 -1.37585e-009 8.75206e-006 -1.46697e-008 0.534909 6.53563 0.619037 -1.20076 1.32587 0.958056 36.4855 1.77046 0.11296 42.2119 -16.5207 5.9535 7.80456 34.9012 9.59888 -13.8524 9.08847 1.76632 -45.6106 3.66917 -3.49807 -26.7825 -3.22618 -1.65787 -3.32558 30.786 -17.6021 5.82328 9.61819 -0.917488 -0.728126 -6.88993 -2.92358 -1.69343 3.41531 -4.90169 0.0854441 9.62841 -10.6963 2.91169 -13.6692 -0.0573692 0.0462048 0.000530889 0.662642 
187.921 103.04 6.41968 -3.40804 -0.478529 -93.7136 -1.769 2.86963 2.09808 -0.408898 7.96354 19.4713 -1.43809 -11.2539 0.00502748 -1.37585e-009 8.75206e-006 -1.46697e-008 0.400447 6.5848 0.604292 -1.06857 1.25965 0.911935 36.4658 1.77046 0.118907 42.165 -17.1006 5.8568 7.94071 35.4434 9.21533 -14.1291 9.09057 1.59502 -45.7303 3.67134 -3.48446 -26.7169 -3.82985 -1.58619 -3.59664 31.5638 -17.1062 5.82328 9.61819 -0.917488 -0.528852 -6.67556 -2.8108 -1.72802 3.36825 -4.91587 0.0821282 9.67933 -10.6541 2.9868 -13.6829 -0.0574297 0.0462048 0.000530889 0.662642 
187.904 103.037 6.42196 -3.38578 -0.479622 -93.7348 -1.7746 2.85901 2.08781 -0.405499 7.96062 19.5039 -1.44522 -11.2569 0.00469544 -1.37585e-009 8.75206e-006 -1.46697e-008 0.402387 6.56488 0.582871 -1.12326 1.27443 0.901615 36.6053 1.77046 0.117651 42.0134 -17.8028 5.80529 7.94179 36.4421 8.89475 -13.8262 9.11468 1.54508 -45.7204 3.66116 -3.46658 -26.7083 -4.55591 -1.61606 -3.89293 32.4463 -16.5591 5.82328 9.61819 -0.917488 -0.581461 -6.56156 -2.98505 -1.73672 3.34678 -4.92227 0.0846911 9.6969 -10.6649 3.06329 -13.6787 -0.0574404 0.0462048 0.000530889 0.662642 
